PathFileType  4	(X/Y/Z) C:\Users\antoi\Documents\MyRepositories\mobilecap\ResultsAnalysis
DataRate	CameraRate	NumFrames	NumMarkers	Units	OrigDataRate	OrigDataStartFrame	OrigNumFrames
100.0	100.0	4	51	mm	100.0	138	275
Frame#	Time	r_knee			r_shank_antsup			r_ankle			r_calc			r_5meta			r_toe			L_knee			L_shank_antsup			L_ankle			L_calc			L_5meta			L_toe			r_sh2			r_sh3			r_sh4			L_sh2			L_sh3			r_thigh1			r_thigh2			r_thigh3			r_thigh4			r_thigh5			L_thigh1			L_thigh2			L_thigh3			L_thigh4			r.ASIS			r.PSIS			L.ASIS			L.PSIS			C7			R_Shoulder			L_Shoulder			R_Sternum			L_Sternum			R_humerus			R_elbow_med			R_elbow_lat			R_forearm			R_wrist_radius			R_wrist_ulna			L_humerus			L_elbow_med			L_elbow_lat			L_forearm			L_wrist_radius			L_wrist_ulna			R_HJC			L_HJC			R_HJC_reg			L_HJC_reg			
		X1	Y1	Z1	X2	Y2	Z2	X3	Y3	Z3	X4	Y4	Z4	X5	Y5	Z5	X6	Y6	Z6	X7	Y7	Z7	X8	Y8	Z8	X9	Y9	Z9	X10	Y10	Z10	X11	Y11	Z11	X12	Y12	Z12	X13	Y13	Z13	X14	Y14	Z14	X15	Y15	Z15	X16	Y16	Z16	X17	Y17	Z17	X18	Y18	Z18	X19	Y19	Z19	X20	Y20	Z20	X21	Y21	Z21	X22	Y22	Z22	X23	Y23	Z23	X24	Y24	Z24	X25	Y25	Z25	X26	Y26	Z26	X27	Y27	Z27	X28	Y28	Z28	X29	Y29	Z29	X30	Y30	Z30	X31	Y31	Z31	X32	Y32	Z32	X33	Y33	Z33	X34	Y34	Z34	X35	Y35	Z35	X36	Y36	Z36	X37	Y37	Z37	X38	Y38	Z38	X39	Y39	Z39	X40	Y40	Z40	X41	Y41	Z41	X42	Y42	Z42	X43	Y43	Z43	X44	Y44	Z44	X45	Y45	Z45	X46	Y46	Z46	X47	Y47	Z47	X48	Y48	Z48	X49	Y49	Z49	X50	Y50	Z50	X51	Y51	Z51	

138	1.37000000	-492.45715	681.00886	-388.65616	-433.52780	581.03212	-385.70235	-462.80701	292.52972	-397.74605	-501.10893	273.51112	-459.71017	-364.61639	200.74154	-365.02327	-318.43989	218.86580	-395.48623	-465.52139	682.37025	-806.14819	-400.39117	589.41808	-778.77010	-442.99529	299.27333	-819.01808	-483.04801	281.54385	-767.69166	-344.05681	199.92766	-845.11581	-293.93637	209.34191	-799.23024	-425.36156	468.39453	-389.38927	-500.85686	572.29870	-351.93139	-504.02366	460.52616	-370.60983	-463.81097	607.11564	-839.73225	-453.91988	487.90432	-861.55297	-518.19642	993.56519	-413.96049	-477.62687	893.08212	-399.27268	-515.89385	854.37716	-360.57886	-618.96937	951.73699	-390.94207	-571.40937	848.61180	-369.49727	-505.17869	974.41830	-786.27601	-444.97507	852.56560	-792.84878	-606.18897	939.96506	-818.01570	-543.54040	812.51213	-823.64362	-499.35129	1101.68244	-474.58559	-653.68809	1195.43185	-553.65457	-488.03505	1101.21824	-717.79127	-650.56301	1198.21329	-665.74627	-439.94093	1597.98596	-586.07966	-390.14020	1545.50296	-434.01004	-373.93274	1554.62083	-738.09142	-339.62287	1503.32579	-564.66648	-336.45110	1500.36412	-605.19755	-452.55926	1439.36252	-363.14638	-640.55606	1349.29975	-414.44496	-616.48839	1332.74718	-344.94916	-674.98396	1217.60098	-327.62677	-738.03556	1135.13042	-325.08025	-755.07749	1156.30655	-297.43543	-441.79825	1430.65936	-820.28402	-626.79170	1346.13558	-787.65994	-596.80006	1339.24299	-855.93672	-631.74585	1248.00488	-887.32473	-720.44899	1144.28848	-893.31844	-725.99953	1162.63588	-924.97269	-604.60180	1060.28494	-505.97752	-591.20139	1054.94406	-694.80462	-585.47511	1054.44887	-512.22661	-580.98628	1058.44248	-672.79293	
139	1.38000000	-478.79426	663.30256	-388.24888	-417.09131	566.84271	-383.43135	-435.57504	276.69399	-395.42265	-472.65924	257.96896	-458.00406	-336.35969	185.42157	-362.30103	-290.05376	204.79986	-391.54168	-451.33648	665.64599	-808.86725	-383.19969	574.87563	-782.21178	-417.82144	283.43350	-821.86948	-456.22408	264.96094	-769.76917	-317.70519	185.76250	-850.28222	-267.08871	195.95131	-805.34248	-404.37017	454.85944	-386.70898	-484.27545	555.50007	-351.11210	-483.22959	443.79965	-369.20516	-447.87452	590.62029	-842.64057	-434.48122	471.82325	-864.55476	-509.15780	975.60262	-413.50068	-467.93362	875.72454	-398.71302	-505.94611	836.75684	-360.16649	-609.95960	932.92206	-391.01527	-561.36385	830.37543	-368.97626	-496.20944	957.02045	-786.83404	-433.92849	836.33377	-794.30720	-596.64112	920.90983	-819.47469	-531.45964	794.82021	-826.26623	-490.55067	1081.37150	-475.31352	-643.37218	1177.02648	-554.11031	-478.86146	1080.51521	-718.54384	-641.45853	1178.91982	-667.54743	-424.47524	1575.28015	-586.55534	-375.80621	1520.84170	-433.83371	-360.21420	1530.37972	-738.73213	-325.71002	1478.75136	-564.68979	-322.75714	1475.84319	-605.65418	-443.81274	1417.91869	-363.67237	-635.29852	1338.15198	-418.73920	-613.98502	1320.99662	-348.23707	-680.04680	1210.13892	-331.31502	-747.93546	1133.06473	-328.28761	-764.76473	1154.76742	-302.33732	-434.07209	1409.53030	-820.40643	-621.80199	1333.30419	-784.22480	-593.83878	1325.72889	-853.32491	-634.07599	1237.01082	-885.02229	-728.29416	1138.18346	-890.39929	-733.38854	1157.34918	-922.02477	-596.10640	1041.18226	-506.66936	-582.78779	1035.20356	-695.48314	-576.44366	1036.33256	-511.55619	-573.71920	1039.02508	-672.21735	
140	1.39000000	-463.94342	645.70433	-387.46924	-399.87994	551.05533	-381.41449	-410.90727	260.08767	-393.44901	-447.23791	241.54718	-456.04219	-310.41653	169.65388	-360.02750	-264.00665	190.29158	-388.46666	-436.11272	648.18898	-811.34883	-365.56106	558.89787	-785.28578	-394.51292	266.77808	-824.81999	-431.52357	247.77641	-771.99869	-294.02375	170.06209	-854.83450	-242.99208	180.82160	-810.80914	-383.61469	439.90851	-384.73387	-467.08965	537.90055	-350.04417	-462.81737	426.30208	-367.73287	-431.23714	573.36790	-845.14486	-415.39251	454.81382	-867.31395	-499.73282	956.89546	-413.61552	-457.46677	858.03211	-398.35341	-495.01915	818.68920	-359.47040	-600.38678	913.09275	-391.04001	-550.33306	811.41227	-368.39187	-486.98260	938.90727	-787.36992	-422.04951	819.83253	-796.08534	-586.68236	900.66299	-821.06351	-518.36592	776.23375	-828.87614	-481.66797	1059.94531	-476.29881	-633.62177	1157.12538	-554.58951	-469.66802	1058.62051	-719.12122	-632.41212	1158.29211	-668.76894	-409.87475	1551.64502	-586.54949	-361.95910	1495.46580	-433.52535	-347.10192	1505.55361	-739.45632	-312.32887	1453.15787	-564.95886	-309.61347	1450.24571	-606.33377	-435.33654	1395.93858	-364.28665	-629.44695	1325.99712	-423.36417	-610.89223	1308.47483	-352.23117	-683.99028	1202.45434	-335.32600	-757.21891	1129.71228	-333.84248	-772.67709	1153.14381	-307.53621	-426.72326	1387.93222	-819.98222	-616.34119	1319.57404	-780.33200	-590.43332	1311.64117	-850.39151	-635.52884	1225.72025	-882.45483	-734.31858	1131.85910	-888.00696	-739.49716	1151.54072	-918.54148	-587.51035	1020.67715	-507.27990	-574.32103	1014.19096	-696.08670	-567.47667	1016.60619	-511.56979	-565.78072	1018.24068	-672.01895	
141	1.40000000	-447.54866	628.10823	-386.44290	-381.67207	533.78489	-379.77384	-388.84289	242.42723	-391.62528	-424.77846	224.11392	-453.76566	-287.04101	152.64146	-358.55757	-240.62864	174.43597	-386.47347	-419.67344	630.15216	-813.44919	-347.43505	541.64151	-788.07623	-373.24537	249.36696	-827.96178	-409.64736	230.26690	-774.71006	-273.07416	152.57725	-858.51465	-221.75842	163.36097	-815.13778	-363.53639	423.25042	-383.05274	-449.04655	519.80768	-348.64213	-442.89798	408.28626	-366.21627	-413.86778	555.40398	-847.33036	-396.71123	437.04286	-869.79059	-490.27964	937.92416	-414.14628	-446.05161	840.26387	-398.06817	-482.71720	800.43944	-358.64022	-590.08337	892.19600	-391.16403	-537.94083	791.83019	-367.65401	-477.43634	919.99755	-788.45885	-409.18359	802.96243	-798.39684	-576.14925	879.12435	-822.51435	-504.22671	756.63925	-831.05518	-472.74018	1037.50147	-477.30101	-624.78186	1135.65260	-555.09690	-460.44390	1035.56001	-719.71977	-623.28549	1136.19768	-669.24098	-396.12258	1526.84241	-586.48998	-348.70062	1469.40903	-433.41159	-334.54235	1480.28112	-740.05051	-299.47990	1426.62552	-565.66246	-296.94363	1423.69343	-606.98306	-427.08266	1373.47334	-364.96673	-623.18677	1312.78793	-428.52551	-607.20619	1295.19107	-356.49973	-686.66756	1194.35732	-339.59738	-764.61963	1126.19840	-339.37090	-778.76702	1150.93957	-313.13086	-419.45078	1366.04940	-819.63608	-610.40110	1304.89062	-776.15502	-586.55183	1296.94581	-847.16226	-635.98148	1214.09692	-880.00499	-738.76335	1124.82643	-885.47721	-744.43246	1144.79908	-914.09995	-578.81697	998.71585	-507.76513	-565.73601	991.85782	-696.56574	-558.90567	995.01706	-512.50548	-556.80627	995.77914	-672.69764	
